<?xml version="1.0" encoding="iso-8859-1"?>
<!-- Uploaded to: SVG Repo, www.svgrepo.com, Generator: SVG Repo Mixer Tools -->
<svg height="800px" width="800px" version="1.1" id="Layer_1" xmlns="http://www.w3.org/2000/svg" xmlns:xlink="http://www.w3.org/1999/xlink" 
	 viewBox="0 0 512 512" xml:space="preserve">
<path style="fill:#1E0478;" d="M512,106.999V385.77c0,14.84-12.063,26.903-26.903,26.903h-40.613v35.953
	c0,14.829-12.074,26.903-26.903,26.903H26.903C12.063,475.53,0,463.456,0,448.627V126.23c0-14.829,12.063-26.903,26.903-26.903
	h40.613V63.373c0-14.84,12.063-26.903,26.903-26.903H221.37c9.018,0,17.756,3.25,24.6,9.136l35.426,30.573
	c2.938,2.518,6.683,3.917,10.546,3.917h193.154C499.937,80.096,512,92.16,512,106.999z M490.477,385.77V106.999
	c0-2.97-2.41-5.381-5.381-5.381H291.943c-9.018,0-17.756-3.25-24.6-9.136L231.916,61.91c-2.938-2.518-6.683-3.917-10.546-3.917
	H94.419c-2.97,0-5.381,2.411-5.381,5.381v35.953h64.804c9.029,0,17.767,3.25,24.6,9.147l35.437,30.562
	c2.927,2.518,6.672,3.917,10.535,3.917h193.165c14.829,0,26.903,12.063,26.903,26.903v221.295h40.613
	C488.067,391.151,490.477,388.74,490.477,385.77z M422.961,448.627V227.429H21.523v221.198c0,2.959,2.411,5.381,5.381,5.381h390.677
	C420.54,454.008,422.961,451.586,422.961,448.627z M422.961,205.906v-36.05c0-2.97-2.421-5.381-5.381-5.381H224.416
	c-9.029,0-17.756-3.25-24.6-9.147l-35.426-30.562c-2.938-2.518-6.672-3.917-10.546-3.917H26.903c-2.97,0-5.381,2.421-5.381,5.381
	v79.676H422.961z"/>
<path style="fill:#94E7EF;" d="M490.477,106.999V385.77c0,2.97-2.41,5.381-5.381,5.381h-40.613V169.856
	c0-14.84-12.074-26.903-26.903-26.903H224.416c-3.863,0-7.608-1.399-10.535-3.917l-35.437-30.562
	c-6.833-5.897-15.572-9.147-24.6-9.147H89.039V63.373c0-2.97,2.411-5.381,5.381-5.381H221.37c3.863,0,7.608,1.399,10.546,3.917
	l35.426,30.573c6.844,5.886,15.582,9.136,24.6,9.136h193.154C488.067,101.619,490.477,104.029,490.477,106.999z"/>
<g>
	<path style="fill:#9B8CCC;" d="M422.961,227.429v221.198c0,2.959-2.421,5.381-5.381,5.381H26.903c-2.97,0-5.381-2.421-5.381-5.381
		V227.429H422.961z M279.18,340.713c0-5.94-4.821-10.761-10.761-10.761h-35.415v-35.415c0-5.94-4.821-10.761-10.761-10.761
		c-5.951,0-10.761,4.821-10.761,10.761v35.415h-35.426c-5.94,0-10.761,4.821-10.761,10.761s4.821,10.761,10.761,10.761h35.426
		v35.415c0,5.951,4.81,10.761,10.761,10.761c5.94,0,10.761-4.81,10.761-10.761v-35.415h35.415
		C274.359,351.474,279.18,346.653,279.18,340.713z"/>
	<path style="fill:#9B8CCC;" d="M422.961,169.856v36.05H21.523V126.23c0-2.959,2.411-5.381,5.381-5.381h126.94
		c3.874,0,7.608,1.399,10.546,3.917l35.426,30.562c6.844,5.897,15.572,9.147,24.6,9.147h193.165
		C420.54,164.475,422.961,166.886,422.961,169.856z"/>
</g>
<path style="fill:#1E0478;" d="M268.419,329.951c5.94,0,10.761,4.821,10.761,10.761s-4.821,10.761-10.761,10.761h-35.415v35.415
	c0,5.951-4.821,10.761-10.761,10.761c-5.951,0-10.761-4.81-10.761-10.761v-35.415h-35.426c-5.94,0-10.761-4.821-10.761-10.761
	s4.821-10.761,10.761-10.761h35.426v-35.415c0-5.94,4.81-10.761,10.761-10.761c5.94,0,10.761,4.821,10.761,10.761v35.415
	L268.419,329.951L268.419,329.951z"/>
</svg>